<svg id="Capa_1" enable-background="new 0 0 511.975 511.975" height="512" viewBox="0 0 511.975 511.975" width="512" xmlns="http://www.w3.org/2000/svg"><g><path d="m234.275 193.169c4.142 0 7.5-3.357 7.5-7.5v-12c0-4.143-3.358-7.5-7.5-7.5s-7.5 3.357-7.5 7.5v12c0 4.143 3.358 7.5 7.5 7.5zm-124.897-27c-4.142 0-7.5 3.357-7.5 7.5v12c0 4.143 3.358 7.5 7.5 7.5s7.5-3.357 7.5-7.5v-12c0-4.143-3.358-7.5-7.5-7.5zm98.678 26.655c0-4.143-3.358-7.5-7.5-7.5s-7.5 3.357-7.5 7.5c0 3.835-3.12 6.955-6.956 6.955-3.835 0-6.956-3.12-6.956-6.955 0-4.143-3.358-7.5-7.5-7.5s-7.5 3.357-7.5 7.5c0 3.835-3.12 6.955-6.956 6.955-3.835 0-6.956-3.12-6.956-6.955 0-4.143-3.358-7.5-7.5-7.5s-7.5 3.357-7.5 7.5c0 12.106 9.849 21.955 21.956 21.955 5.531 0 10.591-2.056 14.456-5.443 3.865 3.388 8.925 5.443 14.456 5.443 12.106 0 21.956-9.848 21.956-21.955zm289.705 207.202c-19.792-19.792-32.841-34.12-36.732-44.379-3.937-10.383.903-31.813 3.238-42.97 7.901-25.654 4.899-52.224-5.674-74.095 15.413-20.501 27.544-47.246 34.362-75.914 8.041-33.803 8.746-69.741 2.04-103.93-3.919-19.982-23.273-33.014-43.269-29.078-8.335 1.635-15.903 6.135-21.308 12.674-2.639 3.192-2.19 7.92 1.002 10.559s7.92 2.189 10.559-1.002c3.249-3.93 7.617-6.527 12.639-7.512 11.849-2.332 23.331 5.386 25.657 17.246 13.479 68.721-6.555 128.493-30.014 162.824-8.55-12.122-19.742-22.289-32.86-29.778 17.986-29.337 27.703-71.028 21.752-113.962-.568-4.101-4.352-6.97-8.459-6.398-4.103.568-6.968 4.355-6.399 8.459 5.574 40.209-3.872 79.14-20.521 105.413-29.639-11.482-54.195-4.92-56.66-4.824-6.896 1.105-14.945 2.394-21.238 3.168-1.322-13.867-5.216-27.129-11.275-39.447 20.555-22.632 30.61-51.108 28.386-80.769-1.455-19.388-16.582-34.515-35.97-35.97-35.683-2.673-68.474 11.868-92.852 41.023-13.515-3.269-27.779-5.021-42.52-5.021-14.74 0-29.005 1.753-42.52 5.021-24.378-29.157-57.173-43.705-92.852-41.024-19.387 1.455-34.514 16.582-35.969 35.971-2.225 29.661 7.831 58.136 28.386 80.768-7.587 15.423-11.785 32.325-11.785 50.042 0 53.095 36.832 87.918 87.635 103.359-21.535 29.83-38.382 62.246-47.835 92.293-1.243 3.951.953 8.162 4.904 9.405 3.959 1.244 8.164-.958 9.405-4.903 9.481-30.14 26.876-62.906 49.154-92.739 11.511 2.51 23.671 4.161 36.285 4.894 3.674 8.639 8.461 16.653 14.314 23.912-19.348 29.728-33.385 60.391-40.712 88.998-1.1 4.296-1.575 8.605-1.506 12.84-7.779 12.029-22.51 17.886-36.543 14.287-10.928-2.799-19.678-10.838-23.406-21.506-1.367-3.909-5.645-5.974-9.554-4.605-3.91 1.366-5.973 5.644-4.606 9.555 5.388 15.419 18.04 27.04 33.845 31.088 3.998 1.023 8.033 1.518 12.025 1.518 11.845 0 23.293-4.349 32.131-12.103 5.736 13.442 17.424 24.176 32.644 28.074 26.074 6.678 52.528-9.182 59.147-35.03 5.133-20.042 16.315-43.171 31.669-65.604 41.86 12.68 71.645 10.462 112.523 4.462 10.505 31.598 32.82 55.681 60.594 83.456 18.951 18.951 49.789 18.951 68.742 0 18.953-18.954 18.953-49.792.001-68.746zm-169.733-332.594c1.302 17.358-1.606 42.204-21.335 65.91-9.456-14.245-21.967-26.854-36.791-37.178 18.406-15.965 40.243-25.656 57.765-31.39.161.871.293 1.754.361 2.658zm-22.134-22.134c5.549.417 10.516 2.67 14.348 6.144-19.583 6.694-43.603 17.947-63.589 36.458-8.337-4.651-17.234-8.637-26.588-11.872 20.65-22.018 47.214-32.869 75.829-30.73zm-268.499 0c28.613-2.142 55.178 8.712 75.83 30.731-9.354 3.235-18.251 7.221-26.588 11.872-19.985-18.512-44.006-29.765-63.589-36.459 3.832-3.474 8.798-5.728 14.347-6.144zm-22.133 22.135c.068-.904.2-1.787.361-2.659 17.522 5.734 39.359 15.424 57.765 31.389-14.824 10.324-27.335 22.933-36.791 37.178-19.729-23.706-22.637-48.551-21.335-65.908zm16.642 129.688c0-63.841 62.688-115.779 139.741-115.779s139.74 51.938 139.74 115.779c0 68.429-70.55 97.749-139.74 97.749-69.291 0-139.741-29.38-139.741-97.749zm455.251 261.042c-13.105 13.104-34.427 13.102-47.53.001-35.09-35.092-62.218-64.37-62.577-112.789-.031-4.123-3.383-7.444-7.499-7.444h-.057c-4.142.031-7.475 3.414-7.444 7.556.066 8.845.892 17.171 2.508 25.238-36.1 5.273-62.779 7.426-99.289-2.775 3.716-4.833 7.529-9.469 11.399-13.85 2.742-3.104 2.448-7.845-.657-10.587-3.106-2.74-7.845-2.446-10.586.657-23.402 26.499-46.883 64.056-55.722 98.566-4.597 17.953-22.945 28.818-40.895 24.221-17.952-4.598-28.817-22.943-24.22-40.896 7.298-28.497 21.745-59.311 41.777-89.109 1.924-2.862 1.648-6.667-.667-9.222-4.915-5.422-9.069-11.412-12.451-17.871 41.82-.25 79.656-10.289 106.681-28.345 29.089-19.435 45.042-47.004 46.359-79.933 6.768-.78 15.352-2.153 23.201-3.411 3.127-.082 24.818-6.805 53.997 6.181 39.824 18.465 58.375 62.956 46.355 104.213-4.319 14.826-8.098 38.521-2.835 52.402 4.888 12.888 17.882 27.398 40.15 49.667 13.105 13.105 13.105 34.427.002 47.53z"/></g></svg>