<?xml version="1.0" encoding="UTF-8"?>
<svg width="30px" height="34px" viewBox="0 0 30 34" version="1.1" xmlns="http://www.w3.org/2000/svg" xmlns:xlink="http://www.w3.org/1999/xlink">
    <!-- Generator: Sketch 48.2 (47327) - http://www.bohemiancoding.com/sketch -->
    <title>Artboard 3</title>
    <desc>Created with Sketch.</desc>
    <defs></defs>
    <g id="Page-1" stroke="none" stroke-width="1" fill="none" fill-rule="evenodd">
        <g id="Artboard-3">
            <rect id="Rectangle" fill="#FFE814" x="4" y="18" width="23" height="13" rx="2"></rect>
            <g id="logo_resume" transform="translate(3.000000, 2.000000)" fill="#000000" fill-rule="nonzero">
                <path d="M25,11.6177344 C25,9.70769531 24.2486593,7.91208984 22.8843126,6.5615625 L18.371296,2.09425781 C17.0167162,0.753339844 15.1794149,0 13.2636825,0 L13.2634458,0 L13.2633866,0 L2.80398726,0 C1.25537179,0 0,1.24265625 0,2.77558594 L0,18.48 L0.0423232192,24.5721094 C0.0439806319,24.8132812 0.242574199,25.0075781 0.486213877,25.0064648 L0.489351123,25.0064648 C0.734529828,25.0048242 0.931939528,24.8067187 0.930222922,24.5640234 L0.887958896,18.4769531 L0.887958896,2.77558594 C0.887958896,1.72804687 1.7457884,0.87890625 2.80398726,0.87890625 L12.2649138,0.87890625 C14.1221632,0.87890625 15.6278043,2.36929687 15.6278043,4.20773438 L15.6278043,6.50126953 C15.6278043,8.03443359 16.8833537,9.27726563 18.4322059,9.27726563 L20.7492098,9.27726563 C22.5997111,9.27726563 24.105589,10.7644922 24.1118043,12.5948438 L24.1118043,27.2238281 C24.1118043,28.2716602 23.2536789,29.1210938 22.1951248,29.1210938 L2.80398726,29.1210938 C2.77663995,29.1210938 2.74941103,29.1205078 2.72230049,29.1193945 C1.73312103,29.0786133 0.959937965,28.2547852 0.94484367,27.2749219 L0.930104535,26.3181445 C0.926375357,26.0754492 0.722927938,25.880332 0.47946584,25.8854297 C0.234287135,25.8891211 0.0385940404,26.0888672 0.0423232192,26.3315039 L0.0602587932,27.4962891 C0.0651126449,27.8122266 0.131941896,28.1255273 0.267672164,28.4115234 C0.722276812,29.3690625 1.69766423,30 2.80398726,30 L22.1957168,30 C23.7418461,30 24.999704,28.7545898 24.999704,27.2238281 L25,11.6177344 Z M20.7492098,8.39835937 L18.4322059,8.39835937 C17.3754277,8.39835937 16.515704,7.54734375 16.515704,6.50126953 L16.515704,4.20773437 C16.515704,3.02015625 16.0162308,1.94607422 15.2142206,1.18025391 C16.1578212,1.48119141 17.0222804,2.00179687 17.7434917,2.71570312 L22.2565083,7.18300781 C22.9777196,7.89691406 23.503593,8.75255859 23.8076691,9.68666016 C23.0340125,8.89277344 21.9489398,8.39835937 20.7492098,8.39835937 Z" id="Shape"></path>
                <path d="M4.44318845,14 L20.5568115,14 C20.8015698,14 21,13.7761333 21,13.5 C21,13.2238667 20.8015698,13 20.5568115,13 L4.44318845,13 C4.19843024,13 4,13.2238667 4,13.5 C4,13.7761333 4.19843024,14 4.44318845,14 Z" id="Shape"></path>
                <path d="M20.5869286,16 L18.4130714,16 C18.1849458,16 18,16.2238667 18,16.5 C18,16.7761333 18.1849458,17 18.4130714,17 L20.5869286,17 C20.8150542,17 21,16.7761333 21,16.5 C21,16.2238667 20.8150542,16 20.5869286,16 Z" id="Shape"></path>
                <path d="M4.44680091,17 L16.5531991,17 C16.7999523,17 17,16.7761333 17,16.5 C17,16.2238667 16.7999523,16 16.5531991,16 L4.44680091,16 C4.20004766,16 4,16.2238667 4,16.5 C4,16.7761333 4.20004766,17 4.44680091,17 Z" id="Shape"></path>
                <path d="M4.44318845,19 L20.5568115,19 C20.8015698,19 21,18.7761333 21,18.5 C21,18.2238667 20.8015698,18 20.5568115,18 L4.44318845,18 C4.19843024,18 4,18.2238667 4,18.5 C4,18.7761333 4.19843024,19 4.44318845,19 Z" id="Shape"></path>
                <path d="M4.45584392,21 L10.5441561,21 C10.7959035,21 11,20.7761333 11,20.5 C11,20.2238667 10.7959035,20 10.5441561,20 L4.45584392,20 C4.20409652,20 4,20.2238667 4,20.5 C4,20.7761333 4.20409652,21 4.45584392,21 Z" id="Shape"></path>
                <path d="M4.45584392,8 L10.5441561,8 C10.7959035,8 11,7.77613333 11,7.5 C11,7.22386667 10.7959035,7 10.5441561,7 L4.45584392,7 C4.20409652,7 4,7.22386667 4,7.5 C4,7.77613333 4.20409652,8 4.45584392,8 Z" id="Shape"></path>
            </g>
        </g>
    </g>
</svg>